<svg viewBox="0 0 48 67" xmlns="http://www.w3.org/2000/svg" fill-rule="evenodd" clip-rule="evenodd" stroke-linejoin="round" stroke-miterlimit="1.414"><path d="M38.902 24.728a34.58 34.58 0 01-5.869 4.261 34.583 34.583 0 01-17.266 4.657 34.58 34.58 0 0112.667-12.624 34.608 34.608 0 018.1-3.398 34.438 34.438 0 019.166-1.26l-.001.001.001-.001a34.603 34.603 0 01.03 17.884 34.41 34.41 0 01-6.744-9.596l-.084.076z" fill="#e67585"/><path d="M45.737 16.064l.053.007.007.003.007.002.034.019.044.022.007.007.008.005.024.029.033.034.004.01.007.008.013.035.018.04.039.144a36.306 36.306 0 01.733 3.488c.266 1.681.409 3.381.428 5.082a35.01 35.01 0 01-1.169 9.328l-.045.097c-.025.025-.046.055-.076.075a.307.307 0 01-.306.027c-.056-.026-.081-.055-.12-.094l-.032-.032-.161-.164a34.88 34.88 0 01-4.767-6.106 34.27 34.27 0 01-1.481-2.666l-.146-.297-.006-.013-.073.064-.085.075-.256.221a34.994 34.994 0 01-5.236 3.711 35.223 35.223 0 01-8.256 3.471 34.897 34.897 0 01-9.179 1.257l-.035.001c-.035-.007-.071-.007-.105-.019a.298.298 0 01-.161-.135.308.308 0 01-.037-.208c.007-.035.023-.067.037-.1l.035-.06.105-.18a35.002 35.002 0 014.088-5.575 34.875 34.875 0 015.913-5.239 35.766 35.766 0 015.483-3.157 34.612 34.612 0 015.791-2.079 34.391 34.391 0 013.633-.752 34.977 34.977 0 015.15-.393l.038.007zm-.286.609a33.954 33.954 0 00-1.712.059 34.383 34.383 0 00-3.169.336 34.26 34.26 0 00-3.954.852l-.258.072a33.129 33.129 0 00-2.143.688 34.556 34.556 0 00-5.507 2.539 34.664 34.664 0 00-3.323 2.16 34.155 34.155 0 00-6.918 6.781 34.106 34.106 0 00-2.157 3.17l-.002.004a34.326 34.326 0 0010.119-1.717 34.49 34.49 0 006.389-2.858 34.625 34.625 0 005.131-3.603c.183-.155.364-.313.544-.472l.289-.26.08-.052c.03-.008.06-.022.092-.025a.316.316 0 01.184.036.355.355 0 01.075.059c.038.041.051.075.073.121l.04.084.06.126a35.144 35.144 0 00.871 1.685 34.224 34.224 0 005.283 7.155l.03.031a34.297 34.297 0 00.951-6.172 34.264 34.264 0 00-1.051-10.781l-.005-.018h-.012z" fill="#fff" fill-rule="nonzero"/><circle cx="13.928" cy="39.567" r="9.554" fill="#e67585"/><path d="M13.96 29.706l.191.002a9.959 9.959 0 012.622.415 9.807 9.807 0 013.85 2.206 9.916 9.916 0 012.087 2.75 9.717 9.717 0 01.909 2.653 9.909 9.909 0 01-.802 6.11 9.902 9.902 0 01-5.107 4.835 9.896 9.896 0 01-7.563 0 9.87 9.87 0 01-3.043-1.993 9.902 9.902 0 01-2.629-4.301 9.827 9.827 0 01-.408-2.816 9.915 9.915 0 01.518-3.161 9.849 9.849 0 011.46-2.761 9.925 9.925 0 013.854-3.08 9.807 9.807 0 013.998-.859h.063zm-.061.614a10.564 10.564 0 00-.505.015 9.358 9.358 0 00-2.133.376 9.218 9.218 0 00-3.671 2.126 9.268 9.268 0 00-2.423 3.766 9.241 9.241 0 00-.486 2.964 9.313 9.313 0 00.383 2.64c.14.469.317.927.529 1.368a9.303 9.303 0 004.79 4.534 9.152 9.152 0 003.545.706 9.255 9.255 0 003.546-.706 9.257 9.257 0 003.913-3.078 9.19 9.19 0 001.789-5.434 9.35 9.35 0 00-.16-1.751 9.312 9.312 0 00-.852-2.487 9.327 9.327 0 00-3.206-3.551 9.24 9.24 0 00-3.507-1.363 9.358 9.358 0 00-1.493-.125h-.059z" fill="#fff" fill-rule="nonzero"/><path d="M27.569.303a40.326 40.326 0 01-5.431 20.135A40.324 40.324 0 017.416 35.209a40.325 40.325 0 015.432-20.135A40.329 40.329 0 0127.569.303z" fill="#e67585"/><path d="M27.723.037c.071.059.102.069.135.161.021.057.019.093.018.146v.08l-.003.324a40.576 40.576 0 01-3.237 15.372 41.246 41.246 0 01-4.685 8.233 40.732 40.732 0 01-8.324 8.433 40.872 40.872 0 01-3.534 2.38c-.162.098-.325.193-.488.288l-.035.021c-.033.012-.065.03-.1.036a.296.296 0 01-.207-.036.307.307 0 01-.136-.161c-.012-.034-.014-.07-.018-.106v-.08l.003-.324a40.5 40.5 0 013.753-16.574 41.029 41.029 0 017.671-11.233 40.68 40.68 0 015.084-4.466A41.13 41.13 0 0127.38.057l.035-.02c.1-.037.101-.037.207-.037l.101.037zm-.48.814a40.349 40.349 0 00-3.739 2.536 39.956 39.956 0 00-7.676 7.734 40.696 40.696 0 00-4.732 8.09 40.302 40.302 0 00-1.658 4.488 40.034 40.034 0 00-1.699 10.475c-.005.159-.008.319-.011.478v.017a40.057 40.057 0 009.006-7.356 40.226 40.226 0 005.116-6.992 40.333 40.333 0 003.589-8.157A39.945 39.945 0 0027.257.86V.843a.064.064 0 01-.014.008z" fill="#fff" fill-rule="nonzero"/><path d="M39.02 55.588c0 5.777-4.69 10.467-10.467 10.467a10.464 10.464 0 01-8.902-4.962 10.463 10.463 0 01-8.899 4.957C5.124 66.05.527 61.599.307 56.024c.059-1.33.252-2.625.569-3.879 2.122-8.414 9.747-14.648 18.816-14.648 9.467 0 17.36 6.794 19.062 15.776 0 0 .193.982.224 1.488l.042.827z" fill="#e67585"/><path d="M19.72 37.19l.309.002a19.727 19.727 0 014.036.485 19.576 19.576 0 015.796 2.339 19.667 19.667 0 013.426 2.619 19.897 19.897 0 012.922 3.513 19.577 19.577 0 011.978 3.934 19.58 19.58 0 01.893 3.26 28.644 28.644 0 01.127.742c.017.114.033.229.047.344.013.105.024.21.031.316l.042.837-.001.181a10.873 10.873 0 01-.364 2.614 10.73 10.73 0 01-2.701 4.737 10.846 10.846 0 01-4.442 2.745 10.787 10.787 0 01-4.494.435 10.694 10.694 0 01-4.562-1.62 10.728 10.728 0 01-2.605-2.335c-.124-.153-.243-.31-.358-.469l-.145-.207-.004-.006-.052.075-.048.069a12.758 12.758 0 01-.473.619 10.819 10.819 0 01-5.573 3.583 10.726 10.726 0 01-2.821.355 10.795 10.795 0 01-3.149-.489 10.748 10.748 0 01-5.704-4.251 10.632 10.632 0 01-1.434-3.082 10.505 10.505 0 01-.378-2.164 9.175 9.175 0 01-.014-.234l-.003-.067L0 56.023l.002-.044.006-.127.024-.378a19.65 19.65 0 012.202-7.729 19.76 19.76 0 013.622-4.879 19.79 19.79 0 017.507-4.637 19.63 19.63 0 016.248-1.039h.109zm-.054.614a19.03 19.03 0 00-12.743 4.901 19.237 19.237 0 00-4.179 5.391 19.03 19.03 0 00-1.889 5.648 19.102 19.102 0 00-.239 2.263l-.001.018a9.997 9.997 0 00.224 1.749 10.083 10.083 0 002.876 5.132 10.19 10.19 0 002.929 1.971 10.032 10.032 0 003.662.857 11.059 11.059 0 00.935-.002 10.304 10.304 0 002.46-.424 10.07 10.07 0 002.424-1.102 10.24 10.24 0 003.265-3.275l.069-.078c.03-.016.058-.038.09-.05a.314.314 0 01.295.05c.026.022.046.051.068.078l.011.017.032.051.042.067a9.724 9.724 0 00.492.699 10.21 10.21 0 004.163 3.206 10.154 10.154 0 002.659.702c.445.054.893.079 1.341.074a10.066 10.066 0 002.921-.456c.474-.148.936-.33 1.383-.545a10.29 10.29 0 001.477-.873 10.299 10.299 0 002.544-2.606 10.172 10.172 0 001.342-2.869 10.268 10.268 0 00.379-2.255c.01-.182.015-.365.015-.547l-.041-.817a4.958 4.958 0 00-.027-.276 12.236 12.236 0 00-.046-.327c-.016-.109-.034-.217-.052-.326a27.275 27.275 0 00-.071-.395l-.024-.124-.02-.104a18.076 18.076 0 00-.223-.998 19.022 19.022 0 00-4.154-7.907 19.156 19.156 0 00-8.297-5.533 19.056 19.056 0 00-6.011-.985h-.081z" fill="#fff" fill-rule="nonzero"/><circle cx="28.413" cy="41.968" r="4.777" fill="#eb3a52"/><path d="M28.43 36.883a4.904 4.904 0 01.788.064 5.087 5.087 0 011.974.763 5.097 5.097 0 011.721 1.889 5.058 5.058 0 01.491 1.391 5.144 5.144 0 01-.121 2.444A5.127 5.127 0 0131.23 46.2a5.076 5.076 0 01-4.752.47 5.09 5.09 0 01-2.599-7.003 5.062 5.062 0 011.016-1.369 5.113 5.113 0 012.65-1.341 4.99 4.99 0 01.836-.074h.049zm-.031.615a4.414 4.414 0 00-2.539.801 4.466 4.466 0 00-1.13 1.137 4.475 4.475 0 00-.628 1.348 4.472 4.472 0 004.297 5.654 4.458 4.458 0 003.636-1.851 4.503 4.503 0 00.659-1.33 4.386 4.386 0 00.189-1.318 4.45 4.45 0 00-1.949-3.663 4.402 4.402 0 00-2.477-.778h-.058zM18.96 50.876l.01.001a.188.188 0 01.085.033l.016.013.007.007 1.432 1.432.014.015a.184.184 0 01-.274.245l-1.433-1.432-.013-.015a.186.186 0 01-.04-.133.178.178 0 01.098-.145.172.172 0 01.058-.019l.02-.002h.02z" fill="#fff" fill-rule="nonzero"/><path d="M20.387 50.876a.167.167 0 01.078.021.166.166 0 01.042.029.203.203 0 01.045.067.205.205 0 01.012.069.169.169 0 01-.008.05.164.164 0 01-.026.055l-.013.016-.007.007-1.432 1.432-.015.014a.183.183 0 01-.123.04.183.183 0 01-.126-.057.178.178 0 01-.041-.07.164.164 0 01-.002-.11.182.182 0 01.027-.054l.012-.016.007-.007 1.433-1.432a.023.023 0 01.007-.007.169.169 0 01.08-.042c.01-.003.02-.004.03-.005h.02z" fill="#fff" fill-rule="nonzero"/></svg>