<svg viewBox="0 0 280 111" xmlns="http://www.w3.org/2000/svg" fill-rule="evenodd" clip-rule="evenodd" stroke-linejoin="round" stroke-miterlimit="1.414"><path d="M29.119 109.675c-3.241-1.164-4.297-1.496-4.758-1.497-.664-.003-2.075-1.321-3.714-3.472-1.698-2.227-1.837-2.881-1.62-7.629.141-3.102.21-3.524 1.005-6.156 1.553-5.142 3.11-7.542 6.098-9.404.749-.466 1.662-1.106 2.029-1.423.368-.316.791-.576.942-.576.15 0 1.137-.263 2.193-.586 2.299-.702 2.807-.65 5.662.578 2.626 1.13 3.79 2.299 4.432 4.448.116.389.594 1.57 1.063 2.624.811 1.825.847 1.988.742 3.393-.061.811-.198 1.583-.305 1.715-.107.132-.259.538-.337.903-.19.88-.915 1.341-1.868 1.188-.462-.075-.947-.009-1.308.176-.315.162-.815.294-1.11.294-.295 0-1.247.31-2.115.688-.868.379-2.668 1.07-4 1.536-1.331.466-2.536.939-2.675 1.052-.407.327-.331 2.45.101 2.814.441.371 2.061.975 2.601.97.237-.003.93-.597 1.704-1.464 1.378-1.542 1.664-1.709 2.975-1.741.451-.011 1.357-.207 2.012-.436 1.344-.469 3.268-.569 3.952-.206.251.134.55.487.666.785.195.507.248.423.806-1.273.78-2.378 2.174-4.442 3.44-5.095.504-.26 1.54-.846 2.303-1.303l1.387-.83 2.376.011c2.376.011 3.776.294 4.861.978.248.156.496.284.552.284.213 0 .727-2.135.727-3.021 0-1.176-.504-3.118-1.028-3.958-.286-.459-.69-.738-1.403-.97-1.501-.487-2.217-.416-3.347.331-.818.541-1.159.974-1.946 2.469-1.076 2.042-1.888 2.778-3.423 3.103-.88.186-1.046.153-2.168-.44a9.586 9.586 0 01-4.041-4.15c-.877-1.745-.951-2.701-.336-4.333.455-1.206 1.889-2.711 2.943-3.089 3.27-1.172 6.588-2.097 7.87-2.195 2.615-.952 4.757.099 6.853.109 1.951.003 2.991.564 5.162 2.787 2.015 2.082 2.389 4.725 2.203 6.713-.117 1.252-.179 2.311-.136 2.354.043.043.272-.5.509-1.206 1.559-4.649 6.044-8.125 10.021-7.767.681.061 1.464.283 1.845.522.365.229 1.178.687 1.808 1.019 1.443.76 3.101 2.581 3.632 3.991.284.751.414 1.649.443 3.042.046 2.271-.209 2.973-1.806 4.971-1.469 1.837-3.077 2.386-4.487 1.533-.367-.221-.929-.402-1.25-.402-.625 0-.978-.489-.643-.89.13-.154.057-.449-.216-.876-.742-1.164-2.362-1.085-3.921.189-1.633 1.336-2.894 5.725-2.464 8.574.119.783.319 1.112 1.174 1.93 1.449 1.385 2.354 1.802 3.751 1.728l1.133-.06.567-1.838c.639-2.067 1.409-3.647 2.087-4.279.695-.648 3.049-1.451 4.253-1.451 1.506 0 2.708.621 3.049 1.576.39 1.092.318 5.673-.113 7.139-.456 1.553-1.09 2.231-2.953 3.156-1.537.763-1.654.787-4.514.944-4.997.273-6.919.033-8.835-1.102-.336-.199-1.091-.516-1.678-.705-.588-.189-1.207-.54-1.376-.78-.257-.364-.365-.395-.661-.187-.677.475-2.188 1.204-2.795 1.348-.336.081-.764.284-.953.452-.308.276-.447.25-1.407-.268-.585-.316-1.241-.741-1.456-.946-.262-.248-.537-.327-.831-.237-.241.075-.779.207-1.196.294-.416.087-1.057.384-1.424.661s-1.033.689-1.48.915c-.448.226-.988.603-1.201.836-.351.385-.607.425-2.69.425-1.979 0-2.453-.066-3.376-.475-1.586-.703-3.21-2.495-3.818-4.213l-.481-1.359-.545 1.389c-1.174 2.994-1.955 3.731-5.008 4.726-4.013 1.308-6.345 1.475-8.716.624v.001zm25.321-7.346c.221-.219.461-.651.535-.959.073-.308.314-.989.537-1.514.241-.572.353-1.152.279-1.448-.158-.624-1.09-1.735-1.455-1.735-.152 0-1.05.278-1.996.617-1.271.457-1.758.732-1.871 1.06l-.294.846c-.078.225-.014.655.146.974.157.313.351.949.43 1.411.125.723.23.86.75.97 1.322.281 2.523.19 2.939-.222zm12.002-5.213c-.157-1.229-.217-3.146-.154-4.98l.102-2.982-.498 1.172c-.503 1.182-1.125 4.014-1.373 6.248-.122 1.101-.091 1.252.338 1.64.515.468 1.647 1.091 1.767.973.041-.04-.04-.972-.182-2.071zM30.011 91.22c1.237-.778 3.183-1.869 4.324-2.422 1.141-.554 2.12-1.051 2.175-1.106.165-.164-.61-.908-1.899-1.82-.989-.701-1.452-.891-2.441-1.002-.671-.075-1.386-.183-1.587-.239-.425-.117-1.521.947-2.416 2.344-.547.854-.574 1.012-.574 3.279 0 1.311.038 2.383.084 2.383.047 0 1.097-.638 2.334-1.417zm70.307 17.699c-.779-.354-1.077-.716-1.108-1.348a214.34 214.34 0 00-.135-2.14c-.06-.9-.019-2.126.091-2.724.134-.735.132-1.13-.009-1.216-.233-.144-.164-.898.313-3.405.367-1.932.951-6.285.951-7.086 0-.47-.145-.573-1.327-.959-.73-.237-1.593-.432-1.918-.432-.539 0-.619.095-.901 1.06-.554 1.9-.716 2.853-.858 5.038-.113 1.722-.079 2.285.169 2.82.231.497.338 1.701.42 4.687l.109 4.018-.578.573c-.479.475-.75.573-1.583.573-1.774 0-5.084-.779-5.77-1.357-.511-.432-.614-1.454-.275-2.745.651-2.478.274-8.294-.724-11.172-.219-.631-.535-2.198-.702-3.482-.653-5.012-1.05-6.942-1.683-8.186-.339-.666-.945-2.392-1.347-3.835a256.31 256.31 0 00-1.239-4.311c-.41-1.36-.49-1.977-.412-3.183.108-1.669.139-1.745 1.638-4.009 1.283-1.939 1.726-2.367 3.012-2.913 1.393-.591 2.787-.538 4.372.166 2.834 1.259 3.795 2.431 4.404 5.37.375 1.808.511 6.578.241 8.454l-.171 1.187 1.799-.135c2.59-.196 5.262.127 6.607.797 1.303.649 4.073 2.519 5.032 3.397l.688.629-.135-.883c-.074-.486-.315-1.414-.535-2.062-.22-.649-.4-1.354-.4-1.567 0-.213-.238-1.283-.53-2.378-.291-1.094-.604-2.58-.696-3.301-.091-.722-.302-2.175-.469-3.23-.166-1.054-.404-3.188-.529-4.742a561.258 561.258 0 00-.555-6.334c-.44-4.687-.306-9.495.285-10.288.221-.297.467-.743.546-.99.248-.775 1.798-1.645 3.727-2.094.98-.228 2.925-.693 4.324-1.035 2.458-.601 2.682-.621 6.72-.588 3.478.028 4.431.102 5.696.441.835.224 2.259.541 3.163.703 2.02.364 5.321 1.483 7.555 2.562 1.772.856 3.065 1.933 3.636 3.028.19.366.595.895.899 1.177 1.214 1.125 1.874 3.14 2.229 6.802.241 2.495.09 4.007-.601 5.999-.224.647-.551 2.407-.727 3.913-.176 1.506-.365 2.811-.421 2.899-.183.294.334.168 1.203-.292.791-.419 1.115-.454 4.213-.448 3.339.005 3.369.011 5.547.757 1.457.499 2.551.75 3.27.75.875 0 1.268.123 2.06.644 1.102.724 2.54 2.534 3.349 4.214l.541 1.125.93-1.761c.936-1.772.569-1.982-.063-2.323-.349-.189-1.573-2.614-3.132-5.281-1.01-1.728-1.954-4.474-2.414-7.025-.182-1.007-.601-2.46-.931-3.229-.331-.769-.604-1.551-.607-1.737-.003-.185-.236-.609-.517-.94-.641-.756-1.117-1.868-1.114-2.6.003-.549-.572-3.106-1.547-6.879-.267-1.032-.889-2.902-1.384-4.156-.775-1.967-1.457-4.617-1.848-7.186-.373-2.446-.572-3.651-.75-4.541-.112-.555-.253-2.507-.314-4.339-.112-3.327-.112-3.332.636-6.335.412-1.653.96-3.515 1.218-4.138.257-.622.912-2.398 1.455-3.946.542-1.548 1.291-3.264 1.664-3.814.373-.55.96-1.673 1.306-2.495.602-1.436 2.495-4.326 3.177-4.852.542-.418 1.256-.308 1.46.224.1.262.409.648.686.858.537.407 2.376 2.991 2.376 3.34 0 .114.433.994.962 1.955.529.96 1.11 2.155 1.291 2.654 1.004 2.773 1.492 4.009 1.833 4.642.535.995 1.134 2.572 1.956 5.146.389 1.221.791 2.307.893 2.412.102.105.185.387.185.626s.448 1.833.996 3.542c1.553 4.847 1.744 5.981 2.462 14.646.248 2.997.248 9.505 0 11.57-.1.832-.363 2.637-.583 4.01-.221 1.374-.357 2.613-.302 2.754.135.35-2.353 7.568-3.135 9.094a21.031 21.031 0 01-1.353 2.297c-.616.914-.716 1.459-.716 1.459 2.635-1.35 4.735-1.78 6.802-2.392 1.423-.422 4.925-.955 6.103-.93.718.017 2.991.658 3.744 1.059.402.213 1.444.675 2.316 1.026 1.78.716 3.584 2.181 4.018 3.264.146.363.279.681.296.708.017.028.438-.337.936-.809 1.126-1.071 4.588-3.04 6.095-3.467.784-.222 2.158-.335 4.476-.367 4.103-.058 4.438.051 8.434 2.742 1.513 1.019 3.371 2.17 4.129 2.559 1.764.903 2.017 1.1 2.98 2.32a32.264 32.264 0 001.586 1.84c.822.864 1.22 1.971 1.039 2.891-.057.294.031.691.205.92.472.623 1.04.17 1.044-.831.006-1.414.395-1.991 1.541-2.282.559-.142 1.325-.201 1.702-.131.429.08 1.299-.03 2.32-.292 1.491-.384 1.687-.394 2.23-.115 1.072.55 1.132 1.785.138 2.83-1.243 1.308-.89 2.289.862 2.391.662.039.757-.011.706-.359-.185-1.243.164-3.444.667-4.205.441-.668.713-.741 2.444-.657.845.041 1.866-.052 2.511-.228 1.012-.277 2.366-.239 3.231.09.356.136.261 1.146-.439 4.666-.309 1.554-.385 2.312-.235 2.358.121.038 1.319.114 2.662.17 1.343.055 2.602.162 2.799.237.581.222.677 1.086.209 1.898-.226.394-.569 1.262-.76 1.928-.522 1.818-1.198 2.851-2.048 3.129-.641.21-.81.18-1.613-.287-.987-.573-2.743-.725-3.12-.269-.114.139-.273.769-.352 1.4l-.143 1.147.785.132c1.32.221 1.527.317 2.397 1.113l.842.77 1.224-.583c1.15-.547 1.283-.687 2.209-2.325.542-.958 1.32-2.165 1.728-2.682 1.325-1.679 4.862-7.969 5.489-9.762.205-.587 1.17-3.052 2.145-5.479 1.644-4.092 1.764-4.487 1.653-5.449a28.3 28.3 0 01-.141-1.496c-.014-.307-.6-.979-1.757-2.018a539.67 539.67 0 01-3.408-3.091c-2.299-2.106-2.798-2.45-4.782-3.293-.951-.404-2.806-1.391-4.122-2.193-1.316-.802-2.597-1.566-2.848-1.697-.367-.193-3.163-1.208-4.396-1.597-.224-.07-.26-.546-.182-2.355.082-1.912.193-2.505.709-3.781.337-.833.731-2.013.876-2.624.35-1.478 2.111-6.054 2.913-7.568.352-.666 1.053-1.602 1.557-2.08.504-.479 1.969-1.875 3.256-3.103 1.589-1.518 2.695-2.398 3.45-2.747.612-.283 1.491-.779 1.954-1.103.698-.489 1.152-.62 2.652-.769.995-.099 2.084-.234 2.42-.3.869-.17 1.837.538 2.95 2.158.503.734 1.739 2.207 2.746 3.275 1.965 2.085 3.594 4.708 4.466 7.192.676 1.926 1.582 3.607 2.64 4.895 1.174 1.431 2.696 3.991 4.795 8.07.9 1.747 1.891 3.609 2.203 4.137.312.528.944 1.732 1.404 2.676.461.943 1.214 2.213 1.673 2.82.669.884.773 1.127.521 1.215-.377.131-2.632 2.174-6.322 5.725-1.484 1.428-2.912 2.699-3.174 2.826-.313.151-.859 1.001-1.595 2.481-1.016 2.045-1.648 3.003-5.021 7.61l-1.054 1.44.464.469c.275.278.808.515 1.309.582 1.113.148 1.937-.393 4.512-2.965 2.199-2.195 3.282-2.998 5.217-3.868 1.557-.701 2.772-.882 4.605-.688 1.237.132 1.402.211 2.454 1.187.621.574 1.226 1.306 1.345 1.626.363.978.054 6.883-.421 8.034-.215.521-.419 1.202-.454 1.514-.034.312-.309.984-.61 1.493-.301.509-.547 1.005-.547 1.102 0 .097-.475 1.179-1.056 2.404-1.092 2.302-2.143 4.054-3.66 6.1-.483.651-1.044 1.548-1.246 1.994-.243.537-.666.99-1.25 1.339-.848.509-1.067.538-5.734.765-10.93.533-23.546.46-27.315-.158-1.279-.209-1.92-.796-1.723-1.576.143-.568.195-.556-.837-.187-1.215.434-4.007.403-4.573-.051-.711-.572-1.101-3.004-.637-3.98.169-.356.637-5.704.634-7.241 0-.557-.033-.577-.747-.462-1.589.256-2.675 2.042-2.408 3.963.084.61.016 1.384-.188 2.171-.187.715-.32 2.061-.32 3.236 0 1.73-.059 2.087-.422 2.544-.238.301-.626.532-.892.532-.662 0-2.585.618-2.997.963-.41.344-2.26.164-2.905-.282-1.045-.054-.375.014-1.045-.054-.351-.215-.541-1.204-.391-1.582.079-.197.158-.826.176-1.4.022-.733.172-1.229.501-1.669.615-.826.389-1.16-.387-.571-1.47 1.116-3.107 2.621-3.634 3.343-.902 1.235-1.535 1.611-4 2.374-3.906 1.21-4.932 1.373-8.619 1.374-5.287.001-7.457-.678-9.491-2.97-.766-.591-1.151-1.011-1.476-1.682-.263-.194-.427-.14-.883.29-.307.291-.559.628-.559.75 0 .211-3.264 2.62-4.21 3.108-.245.126-1.207.405-2.136.618-1.459.335-2.327.38-6.368.327-4.621-.06-4.705-.069-6.815-.715l-2.136-.655-1.959-1.983-1.96-1.983-.123.77c-.149.919-1.197 2.071-2.678 2.939-1.895 1.112-4.272.649-5.053-.982-.177-.371-.384-1.332-.459-2.134-.119-1.263-.201-1.489-.609-1.673-.734-.332-2.106.301-3.637 1.678-.732.657-1.517 1.195-1.746 1.195-.228 0-.845.358-1.369.794-.524.437-1.564 1.3-2.311 1.918l-1.358 1.123h-2.372c-2.274 0-2.428-.028-3.739-.669-2.133-1.042-4.798-2.847-5.971-4.044-1.464-1.494-3.409-3.889-3.409-4.199 0-.139-.311-.576-.692-.969-1.003-1.037-4.128-5.727-4.284-6.431-.073-.329-.323-.767-.557-.973-.423-.374-.423-.374-.274.433.082.444.366 1.318.631 1.943s.68 1.897.923 2.826.801 2.507 1.241 3.506c.641 1.454.776 1.969.681 2.584-.074.482.006 1.122.218 1.716.306.862.308 1.013.019 1.69-.236.556-.485.789-.993.929-.372.102-1.018.417-1.435.698-.729.491-.919.517-4.882.653-2.828.098-4.305.073-4.698-.078-.895-.345-1.923-1.203-2.556-2.135-.752-1.105-.872-2.099-.951-7.874-.045-3.233-.154-4.978-.36-5.752-.248-.931-.299-1.006-.318-.467-.011.353-.306 2.261-.654 4.238-.347 1.978-.654 4.413-.683 5.412-.06 2.146-.374 3.407-1.045 4.198-.268.317-.488.647-.488.735 0 .419-1.179 1.242-2.305 1.609-1.65.538-4.697.734-5.527.356zm80.048-11.565a50.053 50.053 0 012.136-.889c1.505-.581 1.853-.798 3.148-1.964 1.255-1.13 1.633-2.202 1.633-4.636 0-2.401-.516-3.288-3.117-5.349-3.164-2.508-3.472-2.656-6.225-2.988-1.614-.195-1.924-.171-3.77.294-1.106.278-2.43.762-2.942 1.075-.824.503-1.008.756-1.581 2.177-.632 1.569-1.105 3.925-1.391 6.927l-.142 1.483 1.346 1.302c1.386 1.342 1.729 1.534 4.497 2.525 1.441.516 1.85.576 3.56.522 1.422-.046 2.175-.172 2.848-.479zm-30.01-.074c1.19-.744 1.577-1.951 2.042-2.838.103-.468-.005-.903-.441-1.768-.485-.961-.677-1.158-1.183-1.215-1.046-.119-2.115.382-3.072 1.439-1.081 1.192-1.118 1.603-.299 3.321l.601 1.261h.911c.501 0 1.149-.089 1.441-.2zm52.896-.406c3.648-.473 4.427-.624 6.023-1.17l1.707-.584 1.174-1.696c1.056-1.525 1.187-1.829 1.298-3.019.196-2.113-.268-3.356-1.807-4.846-.69-.667-1.452-1.323-1.695-1.457a78.29 78.29 0 01-1.536-.898c-1.006-.601-1.237-.654-2.83-.656-1.225-.001-1.865-.093-2.179-.311-.533-.37-.938-.291-3.334.651-2.421.951-2.953 1.612-4.179 5.189-1.372 4.003-1.079 6.269 1.008 7.8 1.501 1.1 3.335 1.388 6.35.997zM143.28 86.72c1.921-1.502 2.62-1.857 4.361-2.22.713-.149 1.49-.374 1.728-.5.237-.127.857-.324 1.376-.44.832-.185 1.086-.15 2.155.296.667.279 1.306.506 1.422.506.125 0 .209-.608.209-1.51 0-1.371-.052-1.565-.559-2.098-.401-.421-.946-.679-1.924-.911-2.136-.508-3.009-.432-4.693.41-2.056 1.027-3.751 1.633-6.241 2.229-3.021.723-4.841.489-6.267-.805l-.461-.418-.756.428c-.933.53-.98.66-.468 1.306.539.68 3.909 3.185 5.197 3.863.927.489 2.521 1.069 3.069 1.119.121.011.955-.554 1.852-1.255zm-20.451-12.522c6.533-1.634 8.618-3.336 10.887-8.886.566-1.384.67-1.891.673-3.291.002-1.807-.686-4.438-1.398-5.331-.21-.265-1.168-1.015-2.129-1.668-1.385-.941-2.073-1.264-3.329-1.562-1.792-.426-2.308-.457-3.196-.195-.344.102-1.351.38-2.239.618-1.588.426-4.184 1.865-4.183 2.318.003.375 1.019 11.23 1.335 14.236.386 3.676.507 4.44.706 4.44.088 0 1.38-.306 2.873-.679zM5.198 108.157c-.884-.938-1.202-2.184-1.205-4.709-.003-2.665-.526-12.665-.818-15.655a95.762 95.762 0 01-.298-4.137c-.14-3.097-.477-9.354-.571-10.596l-.348-4.54c-.145-1.887-.364-3.558-.486-3.714-.123-.156-.333-2.101-.469-4.339-.341-5.603-.587-8.068-.858-8.57-.285-.528-.115-7.982.21-9.203.239-.9 1.168-2.449 1.774-2.96.749-.631 4.39-1.794 7.542-2.408 4.044-.789 6.439-.883 14.118-.551 3.334.143 6.136.188 6.225.099.09-.089.657.025 1.261.252.604.228 1.373.416 1.709.417 1.922.008 5.848 1.61 9.087 3.707 2.723 1.763 2.825 1.891 4.272 5.344 1.752 4.181 1.841 4.479 1.951 6.556.112 2.118-.045 3.129-.912 5.884-.666 2.118-4.532 10.005-5.447 11.112-.396.48-1.96 1.699-3.511 2.736-1.538 1.028-3.502 2.485-4.364 3.236-1.84 1.602-2.485 1.953-4.941 2.687-1.986.594-4.211 1.883-7.352 4.261-.964.729-2.134 1.51-2.601 1.735-.788.38-.884.517-1.31 1.88-.632 2.02-1.089 9.19-.816 12.817.207 2.753.065 5.524-.301 5.911-.128.135-.369.506-.536.826-.166.32-.601.722-.966.895-.365.173-.663.381-.663.462 0 .525-4.171 1.19-7.31 1.166-1.401-.011-1.552-.055-2.066-.601zm12.643-34.401c.511-.254 1.057-.617 1.215-.805.158-.189.885-.634 1.615-.989.73-.356 1.831-.968 2.446-1.361a26.744 26.744 0 012.035-1.166c1.136-.562 2.752-2.082 3.271-3.077.504-.966.501-2.387-.009-4.023-.328-1.052-.611-1.487-1.577-2.422-.647-.626-1.47-1.285-1.828-1.463-1.164-.58-3.255-.392-6.977.627-.615.168-1.373.318-1.684.333-.776.038-1.001.937-.741 2.954.107.833.253 3.9.323 6.816.145 6.024-.051 5.555 1.911 4.576zm205.652 2.904c-2.863-.486-3.759-.768-4.22-1.329-.251-.305-.457-.72-.458-.922 0-.201-.107-.563-.237-.803-.611-1.133-.059-4.04 1.057-5.569.999-1.368 1.47-1.504 4.657-1.346 3.197.159 4.198.497 4.884 1.65.845 1.422.391 4.762-.914 6.718-.936 1.404-2.614 1.967-4.769 1.601zm-30.466-8.142c-.165-.186-.464-.249-.835-.175-.861.171-2.064-.537-3.036-1.787-1.104-1.42-1.431-2.24-1.912-4.795-.651-3.458-.811-6.062-.677-11.001.167-6.183.368-7.836 1.463-12.008.51-1.943 1.142-4.395 1.404-5.449.832-3.348 2.63-8.49 3.99-11.412.723-1.555 1.431-3.413 1.573-4.129.296-1.49.865-2.718 1.346-2.901.517-.196.949-.149 1.299.142.176.148.733.383 1.236.523 1.677.466 4.56 1.857 6.001 2.894.784.564 2.019 1.301 2.747 1.637 3.963 1.834 6.154 3.357 9.025 6.272 1.547 1.571 2.185 2.312 5.382 6.249 2.443 3.009 4.669 6.825 5.795 9.935.287.793.707 1.784.934 2.204.739 1.367.798 2.939.141 3.783-.269.345-.371.347-2.084.038-3.882-.7-7.563-1.969-10.844-3.738-1.011-.545-2.508-1.267-3.328-1.606-.819-.338-2.192-1.055-3.051-1.593-1.364-.854-3.95-1.998-4.086-1.807-.025.037-.207 1.088-.402 2.334-1.304 8.354-5.088 17.773-10.134 25.231-.998 1.474-1.435 1.735-1.947 1.159z" fill-rule="nonzero"/></svg>